<svg width="56" height="56" viewBox="0 0 56 56" fill="none" xmlns="http://www.w3.org/2000/svg">
<path d="M0 54H56" stroke="black" stroke-width="4" stroke-miterlimit="10"/>
<path d="M8 36H48C48.5304 36 49.0391 36.2107 49.4142 36.5858C49.7893 36.9609 50 37.4696 50 38V54H6V38C6 37.4696 6.21071 36.9609 6.58579 36.5858C6.96086 36.2107 7.46957 36 8 36Z" stroke="black" stroke-width="4" stroke-linejoin="round"/>
<path d="M14 18H42C42.5304 18 43.0391 18.2107 43.4142 18.5858C43.7893 18.9609 44 19.4696 44 20V36H12V20C12 19.4696 12.2107 18.9609 12.5858 18.5858C12.9609 18.2107 13.4696 18 14 18Z" stroke="black" stroke-width="4" stroke-linejoin="round"/>
<path d="M28 18.0002V12.2859" stroke="black" stroke-width="4" stroke-miterlimit="10"/>
<path d="M12 28C12.6765 27.9919 13.349 27.8944 14 27.71C14.67 27.52 15.33 27.26 16 27C16.67 26.74 17.33 26.48 18 26.29C19.3053 25.9033 20.6947 25.9033 22 26.29C22.67 26.48 23.33 26.74 24 27C24.67 27.26 25.33 27.52 26 27.71C27.3053 28.0967 28.6947 28.0967 30 27.71C30.67 27.52 31.33 27.26 32 27C32.67 26.74 33.33 26.48 34 26.29C35.3053 25.9033 36.6947 25.9033 38 26.29C38.67 26.48 39.33 26.74 40 27C40.67 27.26 41.33 27.52 42 27.71C42.651 27.8944 43.3235 27.9919 44 28" stroke="black" stroke-width="4" stroke-miterlimit="10"/>
<path d="M50 45.71C49.33 45.52 48.67 45.26 48 45C47.33 44.74 46.67 44.48 46 44.29C44.6947 43.9033 43.3053 43.9033 42 44.29C41.33 44.48 40.67 44.74 40 45C39.33 45.26 38.67 45.52 38 45.71C36.6947 46.0967 35.3053 46.0967 34 45.71C33.33 45.52 32.67 45.26 32 45C31.33 44.74 30.67 44.48 30 44.29C28.6947 43.9033 27.3053 43.9033 26 44.29C25.33 44.48 24.67 44.74 24 45C23.33 45.26 22.67 45.52 22 45.71C20.6947 46.0967 19.3053 46.0967 18 45.71C17.33 45.52 16.67 45.26 16 45C15.33 44.74 14.67 44.48 14 44.29C13.349 44.1056 12.6765 44.0081 12 44C11.3235 44.0081 10.651 44.1056 10 44.29C9.33 44.48 8.67 44.74 8 45C7.33 45.26 6.67 45.52 6 45.71" stroke="black" stroke-width="4" stroke-miterlimit="10"/>
<path d="M34 5.21437C34 9.71437 28 12.2858 28 12.2858C28 12.2858 22 9.71437 22 5.21437C21.9999 4.50638 22.2336 3.81818 22.6648 3.25663C23.096 2.69509 23.7005 2.29162 24.3845 2.10889C25.0685 1.92616 25.7937 1.9744 26.4475 2.24611C27.1012 2.51782 27.647 2.9978 28 3.6115C28.353 2.9978 28.8988 2.51782 29.5525 2.24611C30.2063 1.9744 30.9315 1.92616 31.6155 2.10889C32.2995 2.29162 32.904 2.69509 33.3352 3.25663C33.7664 3.81818 34.0001 4.50638 34 5.21437Z" stroke="black" stroke-width="4" stroke-linejoin="round"/>
</svg>
