<?xml version="1.0" standalone="no"?>
<!DOCTYPE svg PUBLIC "-//W3C//DTD SVG 20010904//EN"
 "http://www.w3.org/TR/2001/REC-SVG-20010904/DTD/svg10.dtd">
<svg version="1.0" xmlns="http://www.w3.org/2000/svg"
 width="42pt" height="42pt" viewBox="0 0 512.000000 512.000000"
 preserveAspectRatio="xMidYMid meet">

<g transform="translate(0.000000,512.000000) scale(0.100000,-0.100000)"
fill="#fff" stroke="none">
<path d="M3637 4779 c-439 -39 -890 -289 -1158 -644 -23 -30 -45 -54 -49 -53
-5 2 -39 44 -77 93 -156 202 -379 359 -624 439 -160 52 -224 61 -419 61 -147
0 -192 -4 -280 -23 -582 -130 -993 -616 -1026 -1214 -28 -504 238 -1146 715
-1727 404 -494 1051 -979 1764 -1327 104 -51 120 -56 143 -46 14 7 38 12 55
12 34 0 99 31 213 103 152 94 282 203 591 492 88 83 263 245 390 360 418 381
600 569 774 798 247 326 400 679 452 1047 32 223 10 663 -42 869 -68 267 -261
480 -550 607 -169 75 -415 135 -622 154 -114 10 -126 10 -250 -1z m438 -214
c510 -76 781 -373 856 -935 16 -124 17 -415 1 -510 -57 -342 -206 -644 -478
-970 -224 -269 -866 -920 -1124 -1141 -236 -201 -429 -340 -611 -439 l-91 -49
-81 41 c-621 311 -1152 687 -1551 1099 -500 515 -750 1019 -797 1600 -33 399
67 710 296 928 124 118 271 199 445 245 507 136 1079 -70 1353 -487 43 -65 64
-88 85 -93 15 -3 40 -10 56 -15 38 -12 66 6 109 68 76 110 125 170 197 242
226 226 504 363 839 416 120 18 371 18 496 0z"/>
</g>
</svg>
