<svg width="101" height="93" viewBox="0 0 101 93" fill="none" xmlns="http://www.w3.org/2000/svg">
<path d="M53.3 64.3C58.8229 64.3 63.433 59.7521 62.0791 54.3977C58.3258 39.5543 46.347 28.7 32.15 28.7C17.953 28.7 5.97424 39.5543 2.22087 54.3977C0.866954 59.7521 5.47715 64.3 11 64.3H53.3Z" stroke="#8EA3B4" stroke-width="3" stroke-linejoin="round"/>
<path d="M24.7968 29.7012C25.0431 27.7442 24.9243 25.7026 24.4458 24.0442C23.954 22.3399 22.2499 21.4502 20.9459 20.2477C20.8263 20.1374 20.7105 20.0225 20.5989 19.9033C19.8668 19.1215 19.3335 18.175 19.0442 17.1438C18.7548 16.1126 18.7178 15.0269 18.9362 13.9784C19.1547 12.9299 19.6222 11.9493 20.2994 11.1195C20.9765 10.2897 21.8434 9.63497 22.8267 9.21063C23.8101 8.78628 24.8812 8.60477 25.9495 8.68143C27.0178 8.75808 28.0519 9.09064 28.9647 9.65104C29.8774 10.2114 30.6419 10.9832 31.1936 11.9012C31.2909 12.0687 31.4305 12.2077 31.5984 12.3044C31.7663 12.401 31.9567 12.4519 32.1504 12.4519C32.3441 12.4519 32.5344 12.401 32.7023 12.3044C32.8702 12.2077 33.0098 12.0687 33.1071 11.9012C33.6591 10.9839 34.4236 10.2129 35.3361 9.65314C36.2486 9.09338 37.2824 8.76133 38.3502 8.685C39.418 8.60867 40.4885 8.79031 41.4714 9.21458C42.4542 9.63885 43.3206 10.2933 43.9974 11.1227C44.6743 11.9522 45.1416 12.9322 45.3601 13.9802C45.5786 15.0282 45.5419 16.1134 45.2529 17.1442C44.9639 18.175 44.4313 19.1211 43.6999 19.9028C43.5879 20.0224 43.4719 20.1377 43.3519 20.2483C42.0495 21.4499 40.3475 22.339 39.8558 24.0414C39.3766 25.7003 39.2575 27.7431 39.504 29.7012" stroke="#8EA3B4" stroke-width="3" stroke-linejoin="round"/>
<path d="M23.25 2V8.675" stroke="#8EA3B4" stroke-width="3" stroke-miterlimit="10" stroke-linecap="round"/>
<path d="M41.0502 8.675V2" stroke="#8EA3B4" stroke-width="3" stroke-miterlimit="10" stroke-linecap="round"/>
<path d="M16.5748 47.6125C16.5748 49.6779 17.3953 51.6587 18.8557 53.1191C20.3162 54.5796 22.297 55.4 24.3623 55.4C26.4277 55.4 28.4085 54.5796 29.8689 53.1191C31.3294 51.6587 32.1498 49.6779 32.1498 47.6125" stroke="#8EA3B4" stroke-width="3" stroke-linecap="round" stroke-linejoin="round"/>
<path d="M32.1501 47.6125C32.1501 49.6779 32.9706 51.6587 34.431 53.1191C35.8914 54.5796 37.8722 55.4 39.9376 55.4C42.003 55.4 43.9837 54.5796 45.4442 53.1191C46.9046 51.6587 47.7251 49.6779 47.7251 47.6125" stroke="#8EA3B4" stroke-width="3" stroke-linecap="round" stroke-linejoin="round"/>
<path d="M47.7249 47.6125C47.7252 49.2206 48.2232 50.7892 49.1506 52.1029C50.0779 53.4166 51.3892 54.4111 52.9043 54.9499C54.4194 55.4886 56.0641 55.5453 57.6127 55.1119C59.1613 54.6786 60.5378 53.7766 61.5533 52.5298" stroke="#8EA3B4" stroke-width="3" stroke-linecap="round" stroke-linejoin="round"/>
<path d="M2.74667 52.5298C2.91287 52.7367 3.09118 52.9336 3.28067 53.1194C4.36985 54.2084 5.75749 54.95 7.26812 55.2505C8.77876 55.5509 10.3446 55.3966 11.7675 54.8072C13.1905 54.2178 14.4067 53.2196 15.2625 51.939C16.1182 50.6584 16.575 49.1528 16.575 47.6125" stroke="#8EA3B4" stroke-width="3" stroke-linecap="round" stroke-linejoin="round"/>
<path d="M47.7248 83.2126H43.2623C37.7395 83.2126 33.2623 78.7354 33.2623 73.2126V43.1625C33.2623 34.1273 37.6651 30.9625 39.3192 30.0923C39.7194 29.8818 40.1403 29.7111 40.5448 29.5088C45.1647 27.1989 50.784 28.9779 53.2329 33.5257L55.6076 37.9359C59.3833 44.948 69.4413 44.9479 73.217 37.9359L75.5918 33.5257C78.0406 28.9779 83.6599 27.1989 88.2799 29.5088C88.6843 29.7111 89.1052 29.8818 89.5054 30.0923C91.1595 30.9625 95.5623 34.1273 95.5623 43.1625V73.2126C95.5623 78.7354 91.0852 83.2126 85.5623 83.2126H81.1221" fill="#FBFBFB"/>
<path d="M47.7248 83.2126H43.2623C37.7395 83.2126 33.2623 78.7354 33.2623 73.2126V43.1625C33.2623 34.1273 37.6651 30.9625 39.3192 30.0923C39.7194 29.8818 40.1403 29.7111 40.5448 29.5088V29.5088C45.1647 27.1989 50.784 28.9779 53.2329 33.5257L55.6076 37.9359C59.3833 44.948 69.4413 44.9479 73.217 37.9359L75.5918 33.5257C78.0406 28.9779 83.6599 27.1989 88.2799 29.5088V29.5088C88.6843 29.7111 89.1052 29.8818 89.5054 30.0923C91.1595 30.9625 95.5623 34.1273 95.5623 43.1625V73.2126C95.5623 78.7354 91.0852 83.2126 85.5623 83.2126H81.1221" stroke="#FBFBFB" stroke-width="3" stroke-miterlimit="10"/>
<path d="M67.75 91.0001H59.95C54.4271 91.0001 49.95 86.5229 49.95 81V70.975V53.175" stroke="#8EA3B4" stroke-width="3" stroke-miterlimit="10"/>
<path d="M85.5501 53.175V70.975V81.0001C85.5501 86.5229 81.073 91.0001 75.5501 91.0001H67.7501" stroke="#8EA3B4" stroke-width="3" stroke-miterlimit="10"/>
<path d="M51.0625 86.5501H46.6C41.0772 86.5501 36.6 82.0729 36.6 76.5501V46.5001C36.6 37.4649 41.0028 34.3 42.6569 33.4299C43.0571 33.2193 43.478 33.0486 43.8825 32.8463V32.8463C48.5024 30.5364 54.1217 32.3154 56.5706 36.8632L58.9453 41.2735C62.721 48.2855 72.7791 48.2855 76.5547 41.2735L78.9295 36.8632C81.3783 32.3154 86.9977 30.5364 91.6176 32.8463V32.8463C92.022 33.0486 92.4429 33.2193 92.8431 33.4299C94.4972 34.3 98.9 37.4649 98.9 46.5001V76.5501C98.9 82.0729 94.4229 86.5501 88.9 86.5501H84.4598" stroke="#8EA3B4" stroke-width="3" stroke-miterlimit="10"/>
<path d="M54.4002 79.875H63.3002" stroke="#8EA3B4" stroke-width="3" stroke-miterlimit="10"/>
<path d="M72.2 79.875H81.1" stroke="#8EA3B4" stroke-width="3" stroke-miterlimit="10"/>
<path d="M92.2252 33.15L75.1218 51.8083C71.1584 56.132 64.342 56.132 60.3787 51.8083L43.2752 33.15" stroke="#8EA3B4" stroke-width="3" stroke-miterlimit="10"/>
<path d="M67.7501 91V57.625" stroke="#8EA3B4" stroke-width="3" stroke-miterlimit="10"/>
<path d="M98.9003 77.65H85.5503" stroke="#8EA3B4" stroke-width="3" stroke-miterlimit="10"/>
<path d="M49.95 77.65H36.6" stroke="#8EA3B4" stroke-width="3" stroke-miterlimit="10"/>
<path d="M61.075 28.7001L74.425 35.3751" stroke="#8EA3B4" stroke-width="3" stroke-miterlimit="10"/>
<path d="M61.075 28.7001L74.425 35.3751" stroke="#8EA3B4" stroke-width="3" stroke-miterlimit="10"/>
<path d="M61.075 35.3751L74.425 28.7001" stroke="#8EA3B4" stroke-width="3" stroke-miterlimit="10"/>
</svg>
