<svg width="60" height="52" viewBox="0 0 60 52" fill="none" xmlns="http://www.w3.org/2000/svg">
<path d="M48 28.57V2H12V28.57" stroke="#8EA3B4" stroke-width="4" stroke-linejoin="round"/>
<path d="M58 20L30 42L2 20" stroke="#8EA3B4" stroke-width="4" stroke-miterlimit="10"/>
<path d="M48 12.1399L58 19.9999V47.9999C58 48.5303 57.7893 49.039 57.4142 49.4141C57.0391 49.7892 56.5304 49.9999 56 49.9999H4C3.46957 49.9999 2.96086 49.7892 2.58579 49.4141C2.21071 49.039 2 48.5303 2 47.9999V19.9999L12 12.1399" stroke="#8EA3B4" stroke-width="4" stroke-miterlimit="10"/>
<path d="M40 17.3571C40 24.8571 30 29.1429 30 29.1429C30 29.1429 20 24.8571 20 17.3571C19.9999 16.1772 20.3894 15.0302 21.108 14.0943C21.8267 13.1584 22.8342 12.486 23.9742 12.1815C25.1142 11.8769 26.3228 11.9573 27.4124 12.4102C28.502 12.863 29.4116 13.6629 30 14.6857C30.5884 13.6629 31.498 12.863 32.5876 12.4102C33.6772 11.9573 34.8858 11.8769 36.0258 12.1815C37.1658 12.486 38.1733 13.1584 38.892 14.0943C39.6106 15.0302 40.0001 16.1772 40 17.3571Z" stroke="#8EA3B4" stroke-width="4" stroke-linejoin="round"/>
</svg>
