<svg width="60" height="53" viewBox="0 0 60 53" fill="none" xmlns="http://www.w3.org/2000/svg">
<path d="M45.9996 8C45.9996 6.4087 46.6318 4.88258 47.757 3.75736C48.8822 2.63214 50.4084 2 51.9996 2C53.5909 2 55.1171 2.63214 56.2423 3.75736C57.3675 4.88258 57.9996 6.4087 57.9996 8V36" stroke="#8EA3B4" stroke-width="4" stroke-miterlimit="10"/>
<path d="M14.0004 8C14.0004 6.4087 13.3682 4.88258 12.243 3.75736C11.1178 2.63214 9.59165 2 8.00035 2C6.40905 2 4.88293 2.63214 3.75771 3.75736C2.63249 4.88258 2.00035 6.4087 2.00035 8V36" stroke="#8EA3B4" stroke-width="4" stroke-miterlimit="10"/>
<path d="M26 36C26 34.9391 26.4214 33.9217 27.1716 33.1716C27.9217 32.4214 28.9391 32 30 32C31.0609 32 32.0783 32.4214 32.8284 33.1716C33.5786 33.9217 34 34.9391 34 36" stroke="#8EA3B4" stroke-width="4" stroke-miterlimit="10"/>
<path d="M58 36.4286C58 45.4286 46 50.5714 46 50.5714C46 50.5714 34 45.4286 34 36.4286C33.9999 35.0126 34.4673 33.6363 35.3297 32.5132C36.192 31.3901 37.401 30.5832 38.769 30.2178C40.137 29.8523 41.5874 29.9488 42.8949 30.4922C44.2024 31.0356 45.294 31.9955 46 33.2228C46.706 31.9955 47.7976 31.0356 49.1051 30.4922C50.4126 29.9488 51.863 29.8523 53.231 30.2178C54.599 30.5832 55.808 31.3901 56.6703 32.5132C57.5327 33.6363 58.0001 35.0126 58 36.4286Z" stroke="#8EA3B4" stroke-width="4" stroke-linejoin="round"/>
<path d="M26 36.4286C26 45.4286 14 50.5714 14 50.5714C14 50.5714 2 45.4286 2 36.4286C1.99989 35.0126 2.4673 33.6363 3.32965 32.5132C4.19201 31.3901 5.40104 30.5832 6.76902 30.2178C8.137 29.8523 9.58736 29.9488 10.8949 30.4922C12.2024 31.0356 13.294 31.9955 14 33.2228C14.706 31.9955 15.7976 31.0356 17.1051 30.4922C18.4126 29.9488 19.863 29.8523 21.231 30.2178C22.599 30.5832 23.808 31.3901 24.6703 32.5132C25.5327 33.6363 26.0001 35.0126 26 36.4286Z" stroke="#8EA3B4" stroke-width="4" stroke-linejoin="round"/>
</svg>
