<svg width="64" height="64" viewBox="0 0 64 64" fill="none" xmlns="http://www.w3.org/2000/svg">
<path d="M42.34 33.7899C41.3522 30.8764 39.7075 28.2292 37.5331 26.053C35.3586 23.8768 32.7127 22.23 29.8 21.2399C27.8815 20.5912 25.8748 20.2405 23.85 20.1999C23.7 20.1899 23.54 20.1899 23.39 20.1899C19.4344 20.1899 15.5676 21.3629 12.2786 23.5605C8.98961 25.7582 6.42616 28.8817 4.9124 32.5363C3.39865 36.1908 3.00258 40.2121 3.77429 44.0917C4.54599 47.9714 6.45081 51.535 9.24786 54.3321C12.0449 57.1291 15.6086 59.0339 19.4882 59.8056C23.3678 60.5774 27.3891 60.1813 31.0437 58.6675C34.6982 57.1538 37.8218 54.5903 40.0194 51.3013C42.217 48.0124 43.39 44.1456 43.39 40.1899C43.39 40.0399 43.39 39.8899 43.38 39.7399" stroke="#8EA3B4" stroke-width="4" stroke-linejoin="round"/>
<path d="M33.38 30.3799C33.32 30.3299 33.26 30.2699 33.2 30.2099C30.8206 27.8562 27.6701 26.4426 24.33 26.2299C24.02 26.1999 23.71 26.1899 23.39 26.1899C20.6211 26.1899 17.9143 27.011 15.612 28.5494C13.3097 30.0877 11.5153 32.2742 10.4557 34.8324C9.39605 37.3905 9.1188 40.2055 9.659 42.9212C10.1992 45.6369 11.5326 48.1315 13.4905 50.0894C15.4484 52.0474 17.943 53.3807 20.6587 53.9209C23.3745 54.4611 26.1894 54.1839 28.7476 53.1243C31.3057 52.0646 33.4922 50.2702 35.0306 47.9679C36.5689 45.6656 37.39 42.9589 37.39 40.1899C37.39 39.8799 37.38 39.5699 37.36 39.2599" stroke="#8EA3B4" stroke-width="4" stroke-linejoin="round"/>
<path d="M24.33 26.2301C25.3126 30.1127 27.5625 33.5566 30.7232 36.0164C33.8839 38.4761 37.7749 39.8112 41.78 39.8101C42.32 39.8101 42.85 39.7901 43.38 39.7401C46.7898 39.4355 50.042 38.1649 52.7552 36.0774C55.4684 33.9898 57.5301 31.1719 58.6984 27.9541C59.8668 24.7363 60.0933 21.2521 59.3515 17.9101C58.6096 14.5681 56.9302 11.5069 54.5102 9.0856C52.0901 6.66431 49.0298 4.98331 45.6882 4.23978C42.3466 3.49624 38.8622 3.72099 35.6438 4.88768C32.4254 6.05437 29.6064 8.11461 27.5175 10.8267C25.4286 13.5389 24.1563 16.7904 23.85 20.2001" stroke="#8EA3B4" stroke-width="4" stroke-linejoin="round"/>
<path d="M33.2 30.2101C33.26 30.2701 33.32 30.3301 33.38 30.3801C35.6172 32.5877 38.6369 33.8208 41.78 33.8101C41.9669 33.8134 42.1538 33.8067 42.34 33.7901C44.6623 33.6821 46.9033 32.9017 48.7903 31.5438C50.6773 30.1858 52.1291 28.3088 52.9691 26.141C53.8091 23.9733 54.0011 21.6081 53.5218 19.3332C53.0425 17.0583 51.9125 14.9717 50.2692 13.3271C48.626 11.6826 46.5403 10.5509 44.2658 10.0698C41.9912 9.58864 39.6259 9.77878 37.4575 10.617C35.289 11.4553 33.4109 12.9056 32.0514 14.7916C30.6919 16.6775 29.9098 18.9178 29.8 21.2401" stroke="#8EA3B4" stroke-width="4" stroke-linejoin="round"/>
</svg>
